<svg width="97" height="32" viewBox="0 0 97 32" fill="none" xmlns="http://www.w3.org/2000/svg">
<path d="M32.0507 16C32.0507 24.8366 24.8759 32 16.0253 32C7.17479 32 0 24.8366 0 16C0 7.16344 7.17479 0 16.0253 0C24.8759 0 32.0507 7.16344 32.0507 16Z" fill="#2129BB"/>
<path d="M45.7997 22.5455H44.6729V10.767H40.4475V9.76136H50.0337V10.767H45.7997V22.5455Z" fill="#2129BB"/>
<path d="M51.8348 22.5455V9.76136H59.543V10.767H52.9616V15.5312H59.193V16.5369H52.9616V21.5398H59.6284V22.5455H51.8348Z" fill="#2129BB"/>
<path d="M71.6815 22.5455H70.4267L67.2342 17.1506H63.4953V22.5455H62.3685V9.76136H67.0805C67.9569 9.76136 68.7138 9.91193 69.3512 10.2131C69.9885 10.5142 70.4808 10.9403 70.8279 11.4915C71.1751 12.0426 71.3486 12.6989 71.3486 13.4602C71.3486 14.3864 71.0897 15.1591 70.5718 15.7784C70.054 16.392 69.3369 16.7983 68.4207 16.9972L71.6815 22.5455ZM63.4953 16.1449H67.0208C67.9996 16.1449 68.7735 15.9063 69.3426 15.429C69.9117 14.946 70.1962 14.2898 70.1962 13.4602C70.1962 12.625 69.9117 11.9688 69.3426 11.4915C68.7792 11.0085 68.0053 10.767 67.0208 10.767H63.4953V16.1449Z" fill="#2129BB"/>
<path d="M86.4663 22.5455H85.3395V11.304L80.6617 20.3977H79.6117L74.9509 11.3551V22.5455H73.8241V9.76136H75.3009L80.1409 19.2301L84.9639 9.76136H86.4663V22.5455Z" fill="#2129BB"/>
<path d="M88.6942 21.3438L89.2491 20.4744C89.6076 20.7699 89.9718 21.017 90.3417 21.2159C90.7173 21.4148 91.1015 21.5625 91.4941 21.6591C91.8868 21.7557 92.2852 21.804 92.6892 21.804C93.3152 21.804 93.8644 21.696 94.3367 21.4801C94.809 21.2585 95.1789 20.9545 95.4464 20.5682C95.7139 20.1818 95.8476 19.7358 95.8476 19.2301C95.8476 18.6903 95.6996 18.2472 95.4037 17.9006C95.1135 17.5483 94.7379 17.2528 94.2769 17.0142C93.816 16.7699 93.3266 16.5398 92.8087 16.3239C92.3933 16.1477 91.9835 15.9631 91.5795 15.7699C91.1754 15.571 90.8084 15.3409 90.4783 15.0795C90.1483 14.8182 89.8836 14.5057 89.6845 14.142C89.491 13.7784 89.3942 13.3381 89.3942 12.821C89.3942 12.1676 89.5593 11.5938 89.8893 11.0994C90.2194 10.5994 90.6747 10.2102 91.2551 9.93182C91.8413 9.65341 92.5185 9.5142 93.2867 9.5142C93.7989 9.5142 94.3082 9.57955 94.8147 9.71023C95.3269 9.84091 95.8163 10.0341 96.283 10.2898L95.8135 11.2188C95.4151 10.9915 94.9997 10.8182 94.5672 10.6989C94.1404 10.5739 93.7164 10.5114 93.2953 10.5114C92.7546 10.5114 92.2766 10.6051 91.8612 10.7926C91.4515 10.9801 91.1299 11.2415 90.8966 11.5767C90.6633 11.9119 90.5466 12.3011 90.5466 12.7443C90.5466 13.2273 90.6832 13.6307 90.9563 13.9545C91.2352 14.2784 91.5909 14.5568 92.0234 14.7898C92.4616 15.017 92.9225 15.2386 93.4062 15.4545C93.8444 15.642 94.2741 15.8409 94.6952 16.0511C95.122 16.2614 95.509 16.5085 95.8561 16.7926C96.2033 17.071 96.4793 17.4063 96.6842 17.7983C96.8947 18.1903 97 18.6619 97 19.2131C97 19.9233 96.8207 20.5483 96.4622 21.0881C96.1037 21.6278 95.6057 22.0483 94.9684 22.3494C94.331 22.6506 93.5884 22.8011 92.7404 22.8011C92.0006 22.8011 91.2893 22.679 90.6064 22.4347C89.9292 22.1903 89.2918 21.8267 88.6942 21.3438Z" fill="#2129BB"/>
<path d="M17.9432 22.5455H14.5628V12.7017H11.0117V9.76136H21.4942V12.7017H17.9432V22.5455Z" fill="white"/>
</svg>
